<svg width="85" height="38" viewBox="0 0 85 38" fill="none" xmlns="http://www.w3.org/2000/svg">
<rect width="84.5" height="38" rx="5" fill="#FFF1A4"/>
<path d="M11.0894 21.6136C11.7315 22.0029 11.7315 22.9346 11.0894 23.3239L4.01838 27.6102C3.35194 28.0142 2.5 27.5344 2.5 26.755V18.1819C2.5 17.4026 3.35198 16.9228 4.01842 17.3268L11.0894 21.6136Z" fill="url(#paint0_linear_114_59)"/>
<circle cx="4.5" cy="13.9688" r="4.5" fill="url(#paint1_radial_114_59)"/>
<circle cx="4.5" cy="13.9688" r="2.5" fill="#FFAE00"/>
<path d="M26.6193 17H25.0341C24.9403 16.544 24.7763 16.1435 24.5419 15.7983C24.3118 15.4531 24.0305 15.1634 23.6982 14.929C23.37 14.6903 23.0057 14.5114 22.6051 14.392C22.2045 14.2727 21.7869 14.2131 21.3523 14.2131C20.5597 14.2131 19.8416 14.4134 19.1982 14.8139C18.5589 15.2145 18.0497 15.8047 17.6705 16.5845C17.2955 17.3643 17.108 18.321 17.108 19.4545C17.108 20.5881 17.2955 21.5447 17.6705 22.3246C18.0497 23.1044 18.5589 23.6946 19.1982 24.0952C19.8416 24.4957 20.5597 24.696 21.3523 24.696C21.7869 24.696 22.2045 24.6364 22.6051 24.517C23.0057 24.3977 23.37 24.2209 23.6982 23.9865C24.0305 23.7479 24.3118 23.456 24.5419 23.1108C24.7763 22.7614 24.9403 22.3608 25.0341 21.9091H26.6193C26.5 22.5781 26.2827 23.1768 25.9673 23.7053C25.652 24.2337 25.2599 24.6832 24.7912 25.054C24.3224 25.4205 23.7962 25.6996 23.2124 25.8913C22.6328 26.0831 22.0128 26.179 21.3523 26.179C20.2358 26.179 19.2429 25.9062 18.3736 25.3608C17.5043 24.8153 16.8203 24.0398 16.3217 23.0341C15.8232 22.0284 15.5739 20.8352 15.5739 19.4545C15.5739 18.0739 15.8232 16.8807 16.3217 15.875C16.8203 14.8693 17.5043 14.0938 18.3736 13.5483C19.2429 13.0028 20.2358 12.7301 21.3523 12.7301C22.0128 12.7301 22.6328 12.826 23.2124 13.0178C23.7962 13.2095 24.3224 13.4908 24.7912 13.8615C25.2599 14.228 25.652 14.6754 25.9673 15.2038C26.2827 15.728 26.5 16.3267 26.6193 17ZM33.0929 26.2045C32.1468 26.2045 31.3308 25.9957 30.6447 25.5781C29.9629 25.1562 29.4366 24.5682 29.0659 23.8139C28.6994 23.0554 28.5162 22.1733 28.5162 21.1676C28.5162 20.1619 28.6994 19.2756 29.0659 18.5085C29.4366 17.7372 29.9522 17.1364 30.6127 16.706C31.2775 16.2713 32.0531 16.054 32.9395 16.054C33.4508 16.054 33.9558 16.1392 34.4544 16.3097C34.9529 16.4801 35.4068 16.7571 35.8159 17.1406C36.225 17.5199 36.551 18.0227 36.7939 18.6491C37.0368 19.2756 37.1582 20.0469 37.1582 20.9631V21.6023H29.59V20.2983H35.6241C35.6241 19.7443 35.5133 19.25 35.2917 18.8153C35.0744 18.3807 34.7633 18.0376 34.3585 17.7862C33.9579 17.5348 33.4849 17.4091 32.9395 17.4091C32.3386 17.4091 31.8187 17.5582 31.3798 17.8565C30.9451 18.1506 30.6106 18.5341 30.3762 19.0071C30.1419 19.4801 30.0247 19.9872 30.0247 20.5284V21.3977C30.0247 22.1392 30.1525 22.7678 30.4082 23.2834C30.6681 23.7947 31.0282 24.1847 31.4885 24.4531C31.9487 24.7173 32.4835 24.8494 33.0929 24.8494C33.4892 24.8494 33.8471 24.794 34.1667 24.6832C34.4906 24.5682 34.7697 24.3977 35.0041 24.1719C35.2385 23.9418 35.4196 23.6562 35.5474 23.3153L37.0048 23.7244C36.8514 24.2188 36.5936 24.6534 36.2314 25.0284C35.8691 25.3991 35.4217 25.6889 34.889 25.8977C34.3564 26.1023 33.7576 26.2045 33.0929 26.2045ZM39.4529 26V16.1818H40.9103V17.6648H41.0126C41.1916 17.179 41.5154 16.7848 41.9842 16.4822C42.4529 16.1797 42.9814 16.0284 43.5694 16.0284C43.6802 16.0284 43.8187 16.0305 43.9849 16.0348C44.1511 16.0391 44.2768 16.0455 44.362 16.054V17.5881C44.3109 17.5753 44.1937 17.5561 44.0105 17.5305C43.8315 17.5007 43.6419 17.4858 43.4416 17.4858C42.9643 17.4858 42.5382 17.5859 42.1632 17.7862C41.7924 17.9822 41.4984 18.255 41.2811 18.6044C41.068 18.9496 40.9615 19.3437 40.9615 19.7869V26H39.4529Z" fill="black"/>
<path d="M51.0353 16.1818V17.4602H45.9473V16.1818H51.0353ZM47.4302 13.8295H48.9387V23.1875C48.9387 23.6136 49.0005 23.9332 49.1241 24.1463C49.252 24.3551 49.4139 24.4957 49.6099 24.5682C49.8102 24.6364 50.0211 24.6705 50.2427 24.6705C50.4089 24.6705 50.5453 24.6619 50.6518 24.6449C50.7583 24.6236 50.8436 24.6065 50.9075 24.5938L51.2143 25.9489C51.112 25.9872 50.9693 26.0256 50.786 26.0639C50.6028 26.1065 50.3706 26.1278 50.0893 26.1278C49.6632 26.1278 49.2456 26.0362 48.8365 25.853C48.4316 25.6697 48.095 25.3906 47.8265 25.0156C47.5623 24.6406 47.4302 24.1676 47.4302 23.5966V13.8295ZM59.492 21.9858V16.1818H61.0005V26H59.492V24.3381H59.3897C59.1596 24.8366 58.8017 25.2607 58.3159 25.6101C57.8301 25.9553 57.2164 26.1278 56.475 26.1278C55.8613 26.1278 55.3159 25.9936 54.8386 25.7251C54.3613 25.4524 53.9863 25.0433 53.7136 24.4979C53.4409 23.9482 53.3045 23.2557 53.3045 22.4205V16.1818H54.813V22.3182C54.813 23.0341 55.0133 23.6051 55.4139 24.0312C55.8187 24.4574 56.3343 24.6705 56.9608 24.6705C57.3358 24.6705 57.7172 24.5746 58.1049 24.3828C58.497 24.1911 58.8251 23.897 59.0893 23.5007C59.3578 23.1044 59.492 22.5994 59.492 21.9858ZM63.968 26V12.9091H65.4766V17.7415H65.6044C65.7152 17.571 65.8686 17.3537 66.0646 17.0895C66.2649 16.821 66.5504 16.5824 66.9212 16.3736C67.2962 16.1605 67.8033 16.054 68.4425 16.054C69.2692 16.054 69.9979 16.2607 70.6286 16.674C71.2592 17.0874 71.7514 17.6733 72.1051 18.4318C72.4588 19.1903 72.6357 20.0852 72.6357 21.1165C72.6357 22.1562 72.4588 23.0575 72.1051 23.8203C71.7514 24.5788 71.2614 25.1669 70.6349 25.5845C70.0085 25.9979 69.2862 26.2045 68.468 26.2045C67.8374 26.2045 67.3324 26.1001 66.9531 25.8913C66.5739 25.6783 66.282 25.4375 66.0774 25.169C65.8729 24.8963 65.7152 24.6705 65.6044 24.4915H65.4254V26H63.968ZM65.451 21.0909C65.451 21.8324 65.5597 22.4865 65.777 23.0533C65.9943 23.6158 66.3118 24.0568 66.7294 24.3764C67.147 24.6918 67.6584 24.8494 68.2635 24.8494C68.8942 24.8494 69.4205 24.6832 69.8423 24.3509C70.2685 24.0142 70.5881 23.5625 70.8011 22.9957C71.0185 22.4247 71.1271 21.7898 71.1271 21.0909C71.1271 20.4006 71.0206 19.7784 70.8075 19.2244C70.5987 18.6662 70.2813 18.2251 69.8551 17.9013C69.4332 17.5732 68.9027 17.4091 68.2635 17.4091C67.6499 17.4091 67.1342 17.5646 66.7166 17.8757C66.299 18.1825 65.9837 18.6129 65.7706 19.1669C65.5575 19.7166 65.451 20.358 65.451 21.0909ZM79.0597 26.2045C78.1136 26.2045 77.2976 25.9957 76.6115 25.5781C75.9297 25.1562 75.4034 24.5682 75.0327 23.8139C74.6662 23.0554 74.483 22.1733 74.483 21.1676C74.483 20.1619 74.6662 19.2756 75.0327 18.5085C75.4034 17.7372 75.919 17.1364 76.5795 16.706C77.2443 16.2713 78.0199 16.054 78.9062 16.054C79.4176 16.054 79.9226 16.1392 80.4212 16.3097C80.9197 16.4801 81.3736 16.7571 81.7827 17.1406C82.1918 17.5199 82.5178 18.0227 82.7607 18.6491C83.0036 19.2756 83.125 20.0469 83.125 20.9631V21.6023H75.5568V20.2983H81.5909C81.5909 19.7443 81.4801 19.25 81.2585 18.8153C81.0412 18.3807 80.7301 18.0376 80.3253 17.7862C79.9247 17.5348 79.4517 17.4091 78.9062 17.4091C78.3054 17.4091 77.7855 17.5582 77.3466 17.8565C76.9119 18.1506 76.5774 18.5341 76.343 19.0071C76.1087 19.4801 75.9915 19.9872 75.9915 20.5284V21.3977C75.9915 22.1392 76.1193 22.7678 76.375 23.2834C76.6349 23.7947 76.995 24.1847 77.4553 24.4531C77.9155 24.7173 78.4503 24.8494 79.0597 24.8494C79.456 24.8494 79.8139 24.794 80.1335 24.6832C80.4574 24.5682 80.7365 24.3977 80.9709 24.1719C81.2053 23.9418 81.3864 23.6562 81.5142 23.3153L82.9716 23.7244C82.8182 24.2188 82.5604 24.6534 82.1982 25.0284C81.8359 25.3991 81.3885 25.6889 80.8558 25.8977C80.3232 26.1023 79.7244 26.2045 79.0597 26.2045Z" fill="#FF0000"/>
<defs>
<linearGradient id="paint0_linear_114_59" x1="9.5" y1="27.4687" x2="5" y2="18.4687" gradientUnits="userSpaceOnUse">
<stop stop-color="#787878"/>
<stop offset="1" stop-color="#FFD700"/>
</linearGradient>
<radialGradient id="paint1_radial_114_59" cx="0" cy="0" r="1" gradientUnits="userSpaceOnUse" gradientTransform="translate(4.5 13.9688) rotate(180) scale(4.5)">
<stop stop-color="#99882D"/>
<stop offset="1" stop-color="#FFE34B"/>
</radialGradient>
</defs>
</svg>
